<svg viewBox="0 0 154 154" version="1.1" xmlns="http://www.w3.org/2000/svg" xmlns:xlink="http://www.w3.org/1999/xlink">
    <defs></defs>
    <g id="Page-1" stroke="none" stroke-width="1" fill="none" fill-rule="evenodd">
        <g id="Private_coach_grey" fill="#585C5E">
            <path d="M110.471,87.616 L107.501,63.424 C107.416,62.734 106.707,62.061 106.015,62.01 L99.811,61.565 C99.591,61.565 99.414,61.633 99.3,61.763 C99.179,61.9 99.131,62.098 99.159,62.337 L102.632,90.606 C102.692,91.104 103.068,91.341 103.541,91.189 L109.375,89.326 C110.032,89.116 110.555,88.301 110.471,87.616" id="Fill-1"></path>
            <path d="M11.771,61.763 C11.657,61.633 11.48,61.565 11.26,61.565 L5.057,62.01 C4.364,62.061 3.655,62.734 3.57,63.424 L0.601,87.616 C0.517,88.301 1.039,89.116 1.696,89.326 L7.53,91.189 C8.003,91.341 8.379,91.104 8.44,90.606 L11.912,62.337 C11.94,62.098 11.893,61.9 11.771,61.763" id="Fill-2"></path>
            <path d="M86.387,129.125 C82.817,129.125 79.924,126.231 79.924,122.661 C79.924,119.092 82.817,116.198 86.387,116.198 C89.956,116.198 92.85,119.092 92.85,122.661 C92.85,126.231 89.956,129.125 86.387,129.125 L86.387,129.125 Z M75.955,106.402 C75.008,106.802 74.157,107.381 73.441,108.097 C72.725,108.812 72.146,109.664 71.746,110.611 L69.686,114.3 L41.385,114.3 L39.325,110.611 C38.925,109.664 38.346,108.812 37.63,108.097 C36.914,107.381 36.062,106.802 35.116,106.402 C34.17,106.002 33.13,105.78 32.038,105.78 L18.232,105.78 L18.232,91.899 L22.515,54.097 C22.907,51.588 23.519,50.613 28.647,48.916 C32.326,47.699 44.732,46.16 55.214,46.001 L55.516,45.996 L55.856,46.001 C66.338,46.16 78.744,47.699 82.423,48.916 C87.552,50.613 88.164,51.588 88.556,54.097 L92.838,91.899 L92.838,105.78 L79.033,105.78 C77.941,105.78 76.901,106.002 75.955,106.402 L75.955,106.402 Z M24.696,129.125 C21.126,129.125 18.232,126.231 18.232,122.661 C18.232,119.092 21.126,116.198 24.696,116.198 C28.265,116.198 31.159,119.092 31.159,122.661 C31.159,126.231 28.265,129.125 24.696,129.125 L24.696,129.125 Z M105.816,58.91 C105.244,55.245 103.706,53.853 98.326,52.073 C97.549,51.816 96.462,51.553 95.09,51.288 C93.585,45.812 89.565,43.906 84.622,42.27 C79.62,40.615 66.004,39.154 55.963,39.002 L55.963,38.988 C55.824,38.989 55.676,38.993 55.535,38.995 C55.395,38.993 55.247,38.989 55.107,38.988 L55.107,39.002 C45.066,39.154 31.45,40.615 26.448,42.27 C21.505,43.906 17.485,45.812 15.98,51.289 C14.609,51.553 13.522,51.816 12.745,52.073 C7.365,53.853 5.827,55.245 5.255,58.91 L5.183,59.495 L9.258,59.201 C9.493,57.779 9.797,57.262 14.001,55.871 C14.336,55.76 14.781,55.641 15.31,55.518 L11.232,91.472 L11.232,141.193 L18.243,141.193 L18.243,147.327 C18.243,156.147 31.149,156.147 31.149,147.327 L31.149,141.193 L79.932,141.193 L79.932,147.327 C79.932,156.147 92.838,156.147 92.838,147.327 L92.838,141.193 L99.838,141.193 L99.838,91.472 L95.76,55.518 C96.29,55.641 96.735,55.76 97.07,55.871 C101.274,57.262 101.578,57.779 101.813,59.201 L105.888,59.495 L105.816,58.91 L105.816,58.91 Z" id="Fill-3"></path>
        </g>
    </g>
</svg>