<?xml version="1.0" encoding="UTF-8"?>
<svg viewBox="0 0 1418 1418" version="1.1" xmlns="http://www.w3.org/2000/svg" xmlns:xlink="http://www.w3.org/1999/xlink">
    <defs>
        <polygon id="path-1" points="0.06 1418 1417.32 1418 1417.32 0.68 0.06 0.68"></polygon>
    </defs>
    <g id="Page-1" stroke="none" stroke-width="1" fill="none" fill-rule="evenodd">
        <g id="Train_Mode_Colour_Background">
            <g id="Group-3">
                <mask id="mask-2" fill="white">
                    <use xlink:href="#path-1"></use>
                </mask>
                <g id="Clip-2"></g>
                <path d="M708.658,0.68 C317.901,0.68 0,318.581 0,709.352 C0,1100.09 317.901,1418 708.658,1418 C1099.41,1418 1417.32,1100.09 1417.32,709.352 C1417.32,318.581 1099.41,0.68 708.658,0.68" id="Fill-1" fill="#FFFFFF" mask="url(#mask-2)"></path>
            </g>
            <path d="M708.66,1299.89 C383.025,1299.89 118.11,1034.97 118.11,709.35 C118.11,383.713 383.025,118.79 708.66,118.79 C1034.29,118.79 1299.21,383.713 1299.21,709.35 C1299.21,1034.97 1034.29,1299.89 708.66,1299.89" id="Fill-4" fill="#E9812C"></path>
            <path d="M648.625,1122.7 C642.588,1122.7 635.513,1116.65 635.513,1108.59 L635.513,511.57 L440.906,511.57 C431.826,511.57 427.801,502.487 427.801,496.445 L427.801,398.636 C427.801,392.567 431.826,384.517 440.906,384.517 L976.409,384.517 C985.465,384.517 989.522,392.567 989.522,398.636 L989.522,496.445 C989.522,502.487 985.465,511.57 976.409,511.57 L781.782,511.57 L781.782,1108.59 C781.782,1116.65 775.706,1122.7 767.639,1122.7 L648.625,1122.7" id="Fill-5" fill="#FFFFFF"></path>
        </g>
    </g>
</svg>