<svg viewBox="0 0 154 154" version="1.1" xmlns="http://www.w3.org/2000/svg" xmlns:xlink="http://www.w3.org/1999/xlink">
    <defs>
        <polygon id="path-1" points="0.06 39.049 0.06 153.852 153.132 153.852 153.132 39.049 0.06 39.049"></polygon>
    </defs>
    <g id="Page-1" stroke="none" stroke-width="1" fill="none" fill-rule="evenodd">
        <g id="Private_ferry_grey">
            <mask id="mask-2" fill="white">
                <use xlink:href="#path-1"></use>
            </mask>
            <g id="Clip-2"></g>
            <path d="M47,69.899 L57.4,69.899 C59.748,69.899 61.652,67.995 61.652,65.647 L61.652,57.209 L90.814,57.209 L90.814,65.647 C90.814,67.995 92.718,69.899 95.066,69.899 L106.132,69.899 L106.132,83.265 L77.741,71.124 C77.03,70.82 76.225,70.82 75.513,71.123 L47,83.286 L47,69.899 L47,69.899 Z M137.538,124.866 C134.632,125.834 132.532,126.533 127.56,126.533 C122.605,126.533 120.528,125.838 117.649,124.875 C117.362,124.779 117.067,124.68 116.766,124.581 L118.151,119.034 L127.394,95.342 C127.951,93.916 127.275,92.307 125.868,91.705 L114.635,86.902 L114.635,65.647 C114.635,63.298 112.732,61.395 110.384,61.395 L99.318,61.395 L99.318,52.957 C99.318,50.609 97.414,48.705 95.066,48.705 L86.133,48.705 L86.133,41.884 C86.133,40.318 84.864,39.049 83.298,39.049 C83.293,39.049 83.289,39.051 83.285,39.051 L83.283,39.049 L69.83,39.05 C68.271,39.052 67.009,40.312 67.001,41.869 L66.999,41.87 L66.999,48.705 L57.4,48.705 C55.051,48.705 53.148,50.609 53.148,52.957 L53.148,61.395 L42.748,61.395 C40.4,61.395 38.496,63.298 38.496,65.647 L38.496,86.913 L27.264,91.704 C25.852,92.307 25.176,93.922 25.738,95.35 L35.062,119.039 L36.432,124.525 C36.065,124.645 35.706,124.764 35.358,124.88 C32.482,125.84 30.405,126.533 25.513,126.533 C20.652,126.533 18.609,125.847 15.782,124.898 C12.313,123.732 7.996,122.28 0,122.28 L0,132.202 C6.374,132.202 9.55,133.27 12.622,134.302 C15.773,135.36 19.031,136.455 25.513,136.455 C32.017,136.455 35.313,135.355 38.499,134.291 C41.577,133.264 44.76,132.202 51.025,132.202 C57.275,132.202 60.428,133.26 63.477,134.283 C66.66,135.351 69.951,136.455 76.536,136.455 C83.123,136.455 86.421,135.351 89.61,134.281 C92.66,133.259 95.814,132.202 102.05,132.202 C108.285,132.202 111.444,133.26 114.504,134.284 C117.692,135.352 120.989,136.455 127.56,136.455 C134.141,136.455 137.461,135.349 140.675,134.279 C143.747,133.258 146.923,132.202 153.132,132.202 L153.132,122.28 C145.317,122.28 141.008,123.713 137.538,124.866 L137.538,124.866 Z" id="Fill-1" fill="#585C5E" mask="url(#mask-2)"></path>
            <path d="M127.56,143.93 C122.605,143.93 120.528,143.234 117.651,142.272 C114.2,141.116 109.905,139.678 102.05,139.678 C94.2,139.678 89.908,141.115 86.458,142.271 C83.583,143.234 81.506,143.93 76.536,143.93 C71.57,143.93 69.499,143.235 66.63,142.273 C63.182,141.117 58.891,139.678 51.025,139.678 C43.148,139.678 38.83,141.119 35.358,142.277 C32.484,143.236 30.408,143.93 25.513,143.93 C20.652,143.93 18.609,143.243 15.782,142.294 C12.315,141.129 7.999,139.678 0,139.678 L0,149.6 C6.376,149.6 9.551,150.666 12.622,151.698 C15.773,152.757 19.031,153.852 25.513,153.852 C32.02,153.852 35.314,152.751 38.499,151.689 C41.577,150.661 44.76,149.6 51.025,149.6 C57.272,149.6 60.426,150.657 63.477,151.68 C66.66,152.747 69.951,153.852 76.536,153.852 C83.123,153.852 86.421,152.747 89.609,151.679 C92.661,150.656 95.817,149.6 102.05,149.6 C108.288,149.6 111.446,150.657 114.504,151.681 C117.692,152.748 120.989,153.852 127.56,153.852 C134.137,153.852 137.459,152.746 140.672,151.678 C143.742,150.656 146.917,149.6 153.132,149.6 L153.132,139.678 C145.311,139.678 141.001,141.111 137.54,142.264 C134.631,143.232 132.53,143.93 127.56,143.93" id="Fill-3" fill="#585C5E" mask="url(#mask-2)"></path>
        </g>
    </g>
</svg>