<svg viewBox="0 0 154 154" version="1.1" xmlns="http://www.w3.org/2000/svg" xmlns:xlink="http://www.w3.org/1999/xlink">
    <defs>
        <polygon id="path-1" points="0.06 154 153.071 154 153.071 0.929 0.06 0.929"></polygon>
    </defs>
    <g id="Page-1" stroke="none" stroke-width="1" fill="none" fill-rule="evenodd">
        <g id="Parking_Symbol__CMYK">
            <g id="Group-3">
                <mask id="mask-2" fill="white">
                    <use xlink:href="#path-1"></use>
                </mask>
                <g id="Clip-2"></g>
                <path d="M153.071,141.244 C153.071,148.26 147.331,154 140.315,154 L12.756,154 C5.74,154 0,148.26 0,141.244 L0,13.685 C0,6.669 5.74,0.929 12.756,0.929 L140.315,0.929 C147.331,0.929 153.071,6.669 153.071,13.685 L153.071,141.244" id="Fill-1" fill="#0C4F7E" mask="url(#mask-2)"></path>
            </g>
            <path d="M80.493,76.209 L58.391,76.209 L58.391,45.358 L80.742,45.358 C87.96,45.358 95.246,52.068 95.246,61.029 C95.246,69.988 88.458,76.209 80.493,76.209 L80.493,76.209 Z M81.738,26.442 L38.479,26.442 L38.479,128.488 L58.142,128.488 L58.142,95.007 L80.835,95.007 C98.009,95.007 114.592,80.374 114.592,60.789 C114.592,43.367 100.653,26.442 81.738,26.442 L81.738,26.442 Z" id="Fill-4" fill="#FFFFFF"></path>
        </g>
    </g>
</svg>