<svg viewBox="0 0 154 154" version="1.1" xmlns="http://www.w3.org/2000/svg" xmlns:xlink="http://www.w3.org/1999/xlink">
    <defs></defs>
    <g id="Page-1" stroke="none" stroke-width="1" fill="none" fill-rule="evenodd">
        <g id="Private_bus_grey" fill="#585C5E">
            <path d="M47.079,38.31 C47.228,38.31 47.385,38.316 47.535,38.317 C47.686,38.316 47.843,38.31 47.992,38.31 L47.079,38.31" id="Fill-1"></path>
            <path d="M79.857,123.723 C76.266,123.723 73.355,120.811 73.355,117.22 C73.355,113.629 76.266,110.718 79.857,110.718 C83.448,110.718 86.359,113.629 86.359,117.22 C86.359,120.811 83.448,123.723 79.857,123.723 L79.857,123.723 Z M47.079,92.918 L12.587,92.918 C9.21,92.918 8.503,90.492 8.835,88.048 L12.389,62.548 C12.877,59.45 13.927,57.407 17.947,57.407 L77.124,57.407 C81.144,57.407 82.194,59.45 82.682,62.548 L86.236,88.048 C86.568,90.492 85.861,92.918 82.484,92.918 L47.079,92.918 L47.079,92.918 Z M15.189,123.723 C11.598,123.723 8.687,120.811 8.687,117.22 C8.687,113.629 11.598,110.718 15.189,110.718 C18.78,110.718 21.691,113.629 21.691,117.22 C21.691,120.811 18.78,123.723 15.189,123.723 L15.189,123.723 Z M28.205,47.188 L66.866,47.188 C70.671,47.188 70.671,52.896 66.866,52.896 L28.205,52.896 C24.4,52.896 24.4,47.188 28.205,47.188 L28.205,47.188 Z M89.951,55.306 C88.682,48.964 84.624,46.427 78.535,43.891 C72.532,41.389 58.15,38.4 47.535,38.317 C36.921,38.4 22.539,41.389 16.536,43.891 C10.447,46.427 6.388,48.964 5.12,55.306 L0.554,90.465 L0.554,138.91 L8.418,138.91 L8.418,146.508 C8.418,155.771 21.973,155.771 21.973,146.508 L21.973,138.91 L73.097,138.91 L73.097,146.508 C73.097,155.771 86.653,155.771 86.653,146.508 L86.653,138.91 L94.517,138.91 L94.517,90.465 L89.951,55.306 L89.951,55.306 Z" id="Fill-2"></path>
        </g>
    </g>
</svg>