<svg viewBox="0 0 400 400" version="1.1" xmlns="http://www.w3.org/2000/svg" xmlns:xlink="http://www.w3.org/1999/xlink">
    <defs>
        <polygon id="path-1" points="0.06 400 400 400 400 0.04 0.06 0.04"></polygon>
    </defs>
    <g id="Page-1" stroke="none" stroke-width="1" fill="none" fill-rule="evenodd">
        <g id="M_Mode_ID_Colour_Background_400x400-(Electronic)">
            <g id="Group-4">
                <mask id="mask-2" fill="white">
                    <use xlink:href="#path-1"></use>
                </mask>
                <g id="Clip-2"></g>
                <path d="M199.999,384.276 C98.381,384.276 15.71,301.608 15.71,199.994 C15.71,98.378 98.381,15.724 199.999,15.724 C301.605,15.724 384.289,98.378 384.289,199.994 C384.289,301.608 301.605,384.276 199.999,384.276" id="Fill-1" fill="#227B7B" mask="url(#mask-2)"></path>
                <path d="M199.999,0 C89.712,0 0,89.724 0,199.994 C0,310.276 89.712,400 199.999,400 C310.288,400 400,310.276 400,199.994 C400,89.724 310.288,0 199.999,0 L199.999,0 Z M199.999,31.432 C292.951,31.432 368.565,107.058 368.565,199.994 C368.565,292.954 292.951,368.554 199.999,368.554 C107.048,368.554 31.434,292.954 31.434,199.994 C31.434,107.058 107.048,31.432 199.999,31.432 L199.999,31.432 Z" id="Fill-3" fill="#FFFFFF" mask="url(#mask-2)"></path>
            </g>
            <path d="M263.211,299.853 C261.304,299.853 259.669,298.491 259.669,296.039 L259.669,175.884 C259.669,163.895 261.304,148.911 262.121,140.192 L261.304,140.192 L217.438,296.584 C216.892,298.219 215.803,299.853 213.35,299.853 L182.017,299.853 C179.565,299.853 178.747,298.491 178.203,296.856 L137.606,140.192 C137.334,139.646 137.334,139.102 137.061,138.557 C137.879,148.638 139.514,160.899 139.514,175.339 L139.514,296.039 C139.514,298.491 137.606,299.853 135.972,299.853 L108.181,299.853 C106.273,299.853 104.639,298.219 104.639,296.039 L104.639,104.499 C104.639,102.592 105.728,100.412 108.453,100.412 L155.316,100.412 C157.224,100.412 158.586,101.229 159.403,103.41 L187.467,202.04 C192.916,221.385 197.82,245.634 199.728,264.978 C201.362,245.634 207.084,221.93 213.078,201.495 C221.796,173.704 229.699,146.186 238.145,118.395 C239.506,113.49 241.141,108.313 242.504,103.41 C244.139,98.777 255.309,100.412 261.848,100.412 L291.546,100.412 C294.272,100.412 295.361,102.047 295.361,103.954 L295.361,296.039 C295.361,298.491 293.726,299.853 292.092,299.853 L263.211,299.853" id="Fill-5" fill="#FFFFFF"></path>
        </g>
    </g>
</svg>