<svg viewBox="0 0 1418 1418" version="1.1" xmlns="http://www.w3.org/2000/svg" xmlns:xlink="http://www.w3.org/1999/xlink">
    <defs>
        <polygon id="path-1" points="0.06 1418 1417.32 1418 1417.32 0.68 0.06 0.68"></polygon>
    </defs>
    <g id="Page-1" stroke="none" stroke-width="1" fill="none" fill-rule="evenodd">
        <g id="Ferry_Mode_Colour_Background">
            <g id="Group-3">
                <mask id="mask-2" fill="white">
                    <use xlink:href="#path-1"></use>
                </mask>
                <g id="Clip-2"></g>
                <path d="M708.658,0.68 C317.901,0.68 0,318.581 0,709.352 C0,1100.09 317.901,1418 708.658,1418 C1099.41,1418 1417.32,1100.09 1417.32,709.352 C1417.32,318.581 1099.41,0.68 708.658,0.68" id="Fill-1" fill="#FFFFFF" mask="url(#mask-2)"></path>
            </g>
            <path d="M708.661,1299.89 C383.025,1299.89 118.11,1034.97 118.11,709.35 C118.11,383.713 383.025,118.79 708.661,118.79 C1034.29,118.79 1299.21,383.713 1299.21,709.35 C1299.21,1034.97 1034.29,1299.89 708.661,1299.89" id="Fill-4" fill="#54B046"></path>
            <path d="M545.519,1093.18 C538.454,1093.18 531.397,1089.14 531.397,1079.07 L531.397,354.993 L929.737,354.993 C937.819,354.993 944.869,360.021 944.869,369.115 L944.869,466.931 C944.869,473.999 941.83,483.058 930.754,483.058 L676.609,483.058 L676.609,676.695 L909.564,676.695 C917.642,676.695 922.68,682.756 922.68,691.833 L922.68,786.609 C922.68,794.687 917.642,800.745 909.564,800.745 L676.609,800.745 L676.609,1079.07 C676.609,1088.14 669.538,1093.18 663.497,1093.18 L545.519,1093.18" id="Fill-5" fill="#FFFFFF"></path>
        </g>
    </g>
</svg>