<svg viewBox="0 0 1418 1418" version="1.1" xmlns="http://www.w3.org/2000/svg" xmlns:xlink="http://www.w3.org/1999/xlink">
    <defs>
        <polygon id="path-1" points="0.06 1418 1417.32 1418 1417.32 0.68 0.06 0.68"></polygon>
    </defs>
    <g id="Page-1" stroke="none" stroke-width="1" fill="none" fill-rule="evenodd">
        <g id="Bus_Mode_Colour_Background">
            <g id="Group-3">
                <mask id="mask-2" fill="white">
                    <use xlink:href="#path-1"></use>
                </mask>
                <g id="Clip-2"></g>
                <path d="M708.658,0.68 C317.901,0.68 0,318.581 0,709.352 C0,1100.09 317.901,1418 708.658,1418 C1099.41,1418 1417.32,1100.09 1417.32,709.352 C1417.32,318.581 1099.41,0.68 708.658,0.68" id="Fill-1" fill="#FFFFFF" mask="url(#mask-2)"></path>
            </g>
            <path d="M708.661,1299.89 C383.025,1299.89 118.11,1034.97 118.11,709.35 C118.11,383.713 383.025,118.79 708.661,118.79 C1034.29,118.79 1299.21,383.713 1299.21,709.35 C1299.21,1034.97 1034.29,1299.89 708.661,1299.89" id="Fill-4" fill="#00ACDC"></path>
            <path d="M713.207,964.351 C805.997,964.351 849.356,942.14 849.356,867.546 C848.353,795.932 803.974,771.73 732.374,771.73 L618.422,771.73 L618.422,964.351 L713.207,964.351 L713.207,964.351 Z M830.199,560.944 C830.199,495.392 784.803,477.235 705.133,477.235 L618.422,477.235 L618.422,655.758 L714.22,655.758 C797.923,655.758 830.199,621.458 830.199,572.027 L830.199,560.944 L830.199,560.944 Z M473.188,1092.41 L473.188,354.222 L750.518,354.222 C893.739,354.222 972.386,427.821 972.386,536.735 L972.386,552.877 C972.386,627.506 932.056,684.991 867.507,708.19 C943.149,722.292 994.575,785.838 994.575,875.589 L994.575,888.712 C994.575,1007.7 905.828,1092.41 749.515,1092.41 L473.188,1092.41 L473.188,1092.41 Z" id="Fill-5" fill="#FFFFFF"></path>
        </g>
    </g>
</svg>