<svg viewBox="0 0 1418 1418" version="1.1" xmlns="http://www.w3.org/2000/svg" xmlns:xlink="http://www.w3.org/1999/xlink">
    <defs>
        <polygon id="path-1" points="0.06 1418 1417.32 1418 1417.32 0.68 0.06 0.68"></polygon>
    </defs>
    <g id="Page-1" stroke="none" stroke-width="1" fill="none" fill-rule="evenodd">
        <g id="LightRail_Mode_Colour_Background">
            <g id="Group-3">
                <mask id="mask-2" fill="white">
                    <use xlink:href="#path-1"></use>
                </mask>
                <g id="Clip-2"></g>
                <path d="M708.658,0.68 C317.901,0.68 0,318.581 0,709.352 C0,1100.09 317.901,1418 708.658,1418 C1099.41,1418 1417.32,1100.09 1417.32,709.352 C1417.32,318.581 1099.41,0.68 708.658,0.68" id="Fill-1" fill="#FFFFFF" mask="url(#mask-2)"></path>
            </g>
            <path d="M708.66,1299.89 C383.025,1299.89 118.11,1034.97 118.11,709.35 C118.11,383.713 383.025,118.79 708.66,118.79 C1034.29,118.79 1299.21,383.713 1299.21,709.35 C1299.21,1034.97 1034.29,1299.89 708.66,1299.89" id="Fill-4" fill="#DB363D"></path>
            <path d="M501.913,1063.66 L501.913,338.562 C501.913,330.505 508.971,325.47 515.023,325.47 L633.999,325.47 C640.058,325.47 647.109,330.505 647.109,338.562 L647.109,935.595 L937.565,935.595 C947.662,935.595 951.683,941.632 951.683,952.743 L951.683,1049.54 C951.683,1056.59 946.649,1063.66 938.574,1063.66 L501.913,1063.66" id="Fill-5" fill="#FFFFFF"></path>
        </g>
    </g>
</svg>